:FULLY-SPECIFIED
:FORCE-ALL-JOINTS-BE-3DOF
:DEGREES
388
root 9.54618 16.9214 18.3793 6.91676 1.63554 -5.87883
lfemur -42.952 3.8177 -14.6108
ltibia 48.5304 0 0
lfoot -12.5956 12.2676 0
ltoes -6.08985 0 0
rfemur 4.37644 6.7174 32.1292
rtibia 13.1969 0 0
rfoot -14.0751 5.21756 0
rtoes -16.5256 0 0
lowerback -7.01714 1.96797 2.26275
upperback -0.698167 2.293 3.21416
thorax 3.16078 1.15554 2.3453
lowerneck -19.7937 -6.46884 -12.9025
upperneck 21.5414 -8.42881 12.9749
head 11.4252 -3.37899 5.60986
lclavicle -4.83573e-15 -3.88751e-14 0
lhumerus -52.4432 -13.2602 97.053
lradius 27.4442 0 0
lwrist 10.6045 0 0
lhand -11.1986 -21.2251 0
lfingers 7.12502 0 0
lthumb 14.8264 8.18276 0
rclavicle -4.83573e-15 -3.88751e-14 0
rhumerus -30.8373 17.006 -85.4327
rradius 42.4045 0 0
rwrist -20.5329 0 0
rhand -30.3301 -23.7376 0
rfingers 7.12502 0 0
rthumb -3.63623 -53.6854 0
389
root 9.55892 16.9134 18.5201 6.97004 1.44456 -6.05713
lfemur -43.1924 3.68801 -14.3904
ltibia 47.3422 0 0
lfoot -12.3198 12.2092 0
ltoes -6.56407 0 0
rfemur 5.5217 6.72227 32.2784
rtibia 12.0732 0 0
rfoot -13.5846 5.41241 0
rtoes -16.4524 0 0
lowerback -7.13493 2.08214 2.39049
upperback -0.690687 2.42909 3.25033
thorax 3.23508 1.22439 2.32877
lowerneck -19.7566 -6.47251 -12.9313
upperneck 21.527 -8.43485 13.0005
head 11.4159 -3.38235 5.62346
lclavicle -4.38663e-15 -3.84951e-14 0
lhumerus -52.749 -12.9935 97.0194
lradius 27.4198 0 0
lwrist 10.4409 0 0
lhand -10.9252 -21.191 0
lfingers 7.12502 0 0
lthumb 15.0897 8.19611 0
rclavicle -4.38663e-15 -3.84951e-14 0
rhumerus -30.7044 16.8722 -85.4975
rradius 42.2071 0 0
rwrist -20.3458 0 0
rhand -30.2714 -23.7053 0
rfingers 7.12502 0 0
rthumb -3.57948 -53.654 0
390
root 9.57166 16.9054 18.6609 7.02319 1.2549 -6.23176
lfemur -43.4066 3.55832 -14.1733
ltibia 46.1285 0 0
lfoot -12.0381 12.1437 0
ltoes -7.04203 0 0
rfemur 6.65216 6.72346 32.4202
rtibia 10.9643 0 0
rfoot -13.0881 5.6038 0
rtoes -16.3804 0 0
lowerback -7.2532 2.19407 2.5154
upperback -0.683569 2.56243 3.28597
thorax 3.30957 1.29184 2.31297
lowerneck -19.7192 -6.47517 -12.9601
upperneck 21.5129 -8.43942 13.026
head 11.4065 -3.38508 5.63723
lclavicle -3.93136e-15 -3.8098e-14 0
lhumerus -53.0422 -12.7327 96.9855
lradius 27.3974 0 0
lwrist 10.2723 0 0
lhand -10.6492 -21.1583 0
lfingers 7.12502 0 0
lthumb 15.3555 8.20778 0
rclavicle -3.93136e-15 -3.8098e-14 0
rhumerus -30.5802 16.733 -85.5623
rradius 42.0031 0 0
rwrist -20.1543 0 0
rhand -30.2117 -23.6751 0
rfingers 7.12502 0 0
rthumb -3.52185 -53.6246 0
391
root 9.58439 16.8975 18.8017 7.07594 1.06702 -6.40208
lfemur -43.5953 3.42908 -13.9605
ltibia 44.8949 0 0
lfoot -11.7522 12.0718 0
ltoes -7.52139 0 0
rfemur 7.76422 6.72086 32.554
rtibia 9.87529 0 0
rfoot -12.5876 5.79075 0
rtoes -16.3097 0 0
lowerback -7.37142 2.30345 2.63708
upperback -0.676844 2.69266 3.32092
thorax 3.38387 1.35772 2.29792
lowerneck -19.6819 -6.47678 -12.9887
upperneck 21.4992 -8.44246 13.051
head 11.397 -3.38716 5.65108
lclavicle -3.47422e-15 -3.76847e-14 0
lhumerus -53.3216 -12.4781 96.9512
lradius 27.3765 0 0
lwrist 10.0991 0 0
lhand -10.3718 -21.1272 0
lfingers 7.12502 0 0
lthumb 15.6226 8.21781 0
rclavicle -3.47422e-15 -3.76847e-14 0
rhumerus -30.4649 16.589 -85.6272
rradius 41.7934 0 0
rwrist -19.9591 0 0
rhand -30.1514 -23.6471 0
rfingers 7.12502 0 0
rthumb -3.46363 -53.5976 0
392
root 9.59713 16.8895 18.9425 7.12805 0.881379 -6.56745
lfemur -43.7592 3.30072 -13.7532
ltibia 43.647 0 0
lfoot -11.4636 11.994 0
ltoes -7.99979 0 0
rfemur 8.85431 6.71436 32.6794
rtibia 8.81116 0 0
rfoot -12.0851 5.97223 0
rtoes -16.2408 0 0
lowerback -7.48905 2.40996 2.75513
upperback -0.670542 2.81942 3.35501
thorax 3.45764 1.42183 2.28361
lowerneck -19.6448 -6.47731 -13.0171
upperneck 21.4862 -8.44392 13.0754
head 11.3875 -3.38857 5.66492
lclavicle -3.01948e-15 -3.72562e-14 0
lhumerus -53.5862 -12.2297 96.9162
lradius 27.3565 0 0
lwrist 9.92148 0 0
lhand -10.0942 -21.0977 0
lfingers 7.12502 0 0
lthumb 15.8899 8.22621 0
rclavicle -3.01948e-15 -3.72562e-14 0
rhumerus -30.3588 16.441 -85.692
rradius 41.5791 0 0
rwrist -19.761 0 0
rhand -30.0908 -23.6217 0
rfingers 7.12502 0 0
rthumb -3.40511 -53.5731 0
393
root 9.60987 16.8815 19.0833 7.17926 0.698438 -6.72722
lfemur -43.8991 3.1737 -13.5526
ltibia 42.3906 0 0
lfoot -11.174 11.9109 0
ltoes -8.47487 0 0
rfemur 9.91885 6.70388 32.7958
rtibia 7.77693 0 0
rfoot -11.5826 6.14725 0
rtoes -16.1738 0 0
lowerback -7.60554 2.51328 2.86914
upperback -0.664693 2.94234 3.38808
thorax 3.53052 1.48399 2.27005
lowerneck -19.6081 -6.47673 -13.0449
upperneck 21.4739 -8.44374 13.099
head 11.378 -3.38929 5.67868
lclavicle -2.57143e-15 -3.68133e-14 0
lhumerus -53.8349 -11.9879 96.8803
lradius 27.3371 0 0
lwrist 9.73981 0 0
lhand -9.81767 -21.0699 0
lfingers 7.12502 0 0
lthumb 16.1563 8.233 0
rclavicle -2.57143e-15 -3.68133e-14 0
rhumerus -30.2622 16.2896 -85.7566
rradius 41.361 0 0
rwrist -19.5607 0 0
rhand -30.0302 -23.5993 0
rfingers 7.12502 0 0
rthumb -3.3466 -53.5516 0
394
root 9.62261 16.8736 19.2241 7.22932 0.518652 -6.88075
lfemur -44.0156 3.04845 -13.3597
ltibia 41.1311 0 0
lfoot -10.8848 11.823 0
ltoes -8.94429 0 0
rfemur 10.9542 6.68929 32.9027
rtibia 6.77763 0 0
rfoot -11.0823 6.31481 0
rtoes -16.1092 0 0
lowerback -7.72038 2.61312 2.97872
upperback -0.659328 3.06106 3.41995
thorax 3.60215 1.54403 2.25725
lowerneck -19.5721 -6.475 -13.0721
upperneck 21.4625 -8.44187 13.1217
head 11.3688 -3.38929 5.69227
lclavicle -2.13436e-15 -3.63569e-14 0
lhumerus -54.0665 -11.7527 96.8432
lradius 27.3176 0 0
lwrist 9.55434 0 0
lhand -9.54335 -21.0439 0
lfingers 7.12502 0 0
lthumb 16.4204 8.2382 0
rclavicle -2.13436e-15 -3.63569e-14 0
rhumerus -30.1755 16.1356 -85.821
rradius 41.1401 0 0
rwrist -19.3588 0 0
rhand -29.9699 -23.5802 0
rfingers 7.12502 0 0
rthumb -3.28838 -53.5334 0
395
root 9.63535 16.8656 19.3649 7.27797 0.342481 -7.02739
lfemur -44.1097 2.92542 -13.1758
ltibia 39.8743 0 0
lfoot -10.5977 11.7308 0
ltoes -9.4057 0 0
rfemur 11.9569 6.67049 32.9997
rtibia 5.81827 0 0
rfoot -10.5861 6.47389 0
rtoes -16.047 0 0
lowerback -7.83301 2.70915 3.08346
upperback -0.654477 3.17522 3.45047
thorax 3.67217 1.60176 2.24521
lowerneck -19.5369 -6.4721 -13.0985
upperneck 21.4523 -8.43823 13.1432
head 11.3597 -3.38856 5.70561
lclavicle -1.71254e-15 -3.58881e-14 0
lhumerus -54.28 -11.5245 96.8046
lradius 27.2976 0 0
lwrist 9.36534 0 0
lhand -9.27249 -21.0197 0
lfingers 7.12502 0 0
lthumb 16.6813 8.24185 0
rclavicle -1.71254e-15 -3.58881e-14 0
rhumerus -30.0988 15.9797 -85.8851
rradius 40.9174 0 0
rwrist -19.1559 0 0
rhand -29.9103 -23.5647 0
rfingers 7.12502 0 0
rthumb -3.23074 -53.5188 0
396
root 9.64809 16.8576 19.5057 7.32496 0.170382 -7.1665
lfemur -44.1819 2.80505 -13.002
ltibia 38.6257 0 0
lfoot -10.3142 11.6351 0
ltoes -9.85673 0 0
rfemur 12.9233 6.64739 33.0862
rtibia 4.90389 0 0
rfoot -10.0961 6.62349 0
rtoes -15.9877 0 0
lowerback -7.9429 2.80106 3.18296
upperback -0.650172 3.28446 3.47946
thorax 3.74024 1.657 2.23394
lowerneck -19.5028 -6.468 -13.124
upperneck 21.4433 -8.43279 13.1633
head 11.351 -3.38705 5.71861
lclavicle -1.31027e-15 -3.54076e-14 0
lhumerus -54.4743 -11.3034 96.7644
lradius 27.2767 0 0
lwrist 9.17309 0 0
lhand -9.0063 -20.9975 0
lfingers 7.12502 0 0
lthumb 16.9376 8.24395 0
rclavicle -1.31027e-15 -3.54076e-14 0
rhumerus -30.0325 15.8226 -85.9488
rradius 40.6938 0 0
rwrist -18.9529 0 0
rhand -29.8515 -23.5532 0
rfingers 7.12502 0 0
rthumb -3.17398 -53.5081 0
397
root 9.66083 16.8497 19.6465 7.37004 0.00281258 -7.29744
lfemur -44.233 2.68778 -12.8394
ltibia 37.3912 0 0
lfoot -10.036 11.5362 0
ltoes -10.295 0 0
rfemur 13.8497 6.61988 33.1618
rtibia 4.03949 0 0
rfoot -9.61439 6.76261 0
rtoes -15.9315 0 0
lowerback -8.04952 2.88854 3.27681
upperback -0.646442 3.38841 3.50676
thorax 3.80598 1.70957 2.22344
lowerneck -19.47 -6.46266 -13.1484
upperneck 21.4357 -8.42547 13.1819
head 11.3428 -3.38476 5.7312
lclavicle -9.31822e-16 -3.49165e-14 0
lhumerus -54.6482 -11.0896 96.7222
lradius 27.2542 0 0
lwrist 8.97787 0 0
lhand -8.746 -20.9772 0
lfingers 7.12502 0 0
lthumb 17.1883 8.24453 0
rclavicle -9.31822e-16 -3.49165e-14 0
rhumerus -29.9769 15.6649 -86.0121
rradius 40.4703 0 0
rwrist -18.7504 0 0
rhand -29.7939 -23.5459 0
rfingers 7.12502 0 0
rthumb -3.1184 -53.5017 0
398
root 9.67357 16.8417 19.7873 7.41295 -0.159768 -7.41955
lfemur -44.2638 2.57405 -12.6892
ltibia 36.1762 0 0
lfoot -9.76453 11.4348 0
ltoes -10.7183 0 0
rfemur 14.7327 6.58785 33.2259
rtibia 3.23012 0 0
rfoot -9.14299 6.89024 0
rtoes -15.8787 0 0
lowerback -8.15233 2.97128 3.36462
upperback -0.643319 3.48671 3.53221
thorax 3.86905 1.75928 2.21373
lowerneck -19.4388 -6.45605 -13.1716
upperneck 21.4298 -8.41623 13.1987
head 11.335 -3.38166 5.74327
lclavicle -5.81483e-16 -3.44155e-14 0
lhumerus -54.8008 -10.8833 96.6779
lradius 27.2298 0 0
lwrist 8.77996 0 0
lhand -8.49279 -20.959 0
lfingers 7.12502 0 0
lthumb 17.4322 8.24362 0
rclavicle -5.81483e-16 -3.44155e-14 0
rhumerus -29.9322 15.5075 -86.0748
rradius 40.2479 0 0
rwrist -18.549 0 0
rhand -29.7379 -23.5432 0
rfingers 7.12502 0 0
rthumb -3.06428 -53.4998 0
